# xmcd
#
# Track frame offsets:
#	150
#	20139
#	41924
#	54538
#	74052
#	97165
#	114548
#	131122
#	148769
#	167163
#	185102
#	200651
#	216065
#	233105
#	252768
#	270556
#	291667
#	310623
#	328835
#
# Disc length: 4659 seconds
# Revision: 0
# Processed by: cddbd v1.5.2PL0 Copyright (c) Steve Scherf et al.
# Submitted via: dBpowerAMP V12.0
#
DISCID=3f123113
DTITLE=Various Artist - Of pure attraction [CD 2 of 2)
DYEAR=1900
DGENRE=Blues
TTITLE0=38 songs - Power of Love
TTITLE1=Roxy Music - Jealous Guy
TTITLE2=Roy Orbison - In Dreams
TTITLE3=Celine Dion/Grififn, Clive - When I Fall in Love
TTITLE4=Sinéad O'Connor - Nothing Compares 2 U
TTITLE5=Michael Bolton - (Sittin' On) the Dock of the Bay
TTITLE6=Python Lee Jackson - In a Broken Dream
TTITLE7=Bangles, The - Eternal Flame
TTITLE8=Luther Vandross - Always and Forever
TTITLE9=Cyndi Lauper - Time After Time
TTITLE10=Roachford - Only to Be With You
TTITLE11=Jim Capaldi - Love Hurts
TTITLE12=Maria McKee - Show Me Heaven
TTITLE13=Curtis Stigers - I Wonder Why
TTITLE14=Pretenders, The - I'll Stand by You
TTITLE15=Duran Duran - Ordinary World
TTITLE16=Berlin - Take My Breath Away
TTITLE17=Peabo Bryson/Regina Belle - Whole New World
TTITLE18=Eurythmics - Miracle of Love
EXTD=
EXTT0=
EXTT1=
EXTT2=
EXTT3=
EXTT4=
EXTT5=
EXTT6=
EXTT7=
EXTT8=
EXTT9=
EXTT10=
EXTT11=
EXTT12=
EXTT13=
EXTT14=
EXTT15=
EXTT16=
EXTT17=
EXTT18=
PLAYORDER=
